<svg width="135" height="40" viewBox="0 0 135 40" fill="none" xmlns="http://www.w3.org/2000/svg">
<path d="M125.47 0H9.24005C8.93005 0 8.63005 0.01 8.32005 0.01C7.65005 0.02 6.98005 0.08 6.32005 0.19C5.66005 0.3 5.02005 0.51 4.42005 0.82C3.82005 1.12 3.27005 1.52 2.80005 2C2.32005 2.47 1.92005 3.02 1.62005 3.62C1.32005 4.22 1.11005 4.86 1.00005 5.52C0.890049 6.18 0.830049 6.85 0.820049 7.52C0.810049 7.83 0.800049 8.14 0.800049 8.44V31.55C0.800049 31.86 0.810049 32.16 0.820049 32.47C0.830049 33.14 0.890049 33.81 1.00005 34.47C1.11005 35.13 1.32005 35.78 1.62005 36.37C1.92005 36.97 2.32005 37.51 2.80005 37.98C3.27005 38.46 3.82005 38.85 4.42005 39.16C5.02005 39.46 5.66005 39.68 6.32005 39.79C6.98005 39.9 7.65005 39.96 8.32005 39.97C8.63005 39.99 8.93005 40 9.24005 40H126.55C126.85 40 127.17 40 127.47 39.99C128.14 39.98 128.81 39.92 129.47 39.81C130.13 39.7 130.78 39.48 131.38 39.18C131.98 38.88 132.52 38.48 133 38C133.48 37.53 133.87 36.98 134.18 36.39C134.48 35.79 134.69 35.15 134.8 34.49C134.91 33.83 134.97 33.16 134.99 32.49V31.57C135 31.21 135 30.85 135 30.48V9.54C135 9.17 135 8.81 134.99 8.45V7.53C134.98 6.86 134.92 6.19 134.8 5.53C134.689 4.8693 134.48 4.22889 134.18 3.63C133.56 2.43 132.58 1.45 131.38 0.83C130.78 0.53 130.14 0.32 129.47 0.2C128.81 0.09 128.14 0.03 127.47 0.02C127.17 0.02 126.85 0.01 126.55 0.01C126.2 0 125.83 0 125.47 0Z" fill="white"/>
<path d="M9.24017 39.1196C8.94017 39.1196 8.64017 39.1196 8.34017 39.1096C7.71017 39.0997 7.09017 39.0496 6.47017 38.9496C5.89218 38.8514 5.33246 38.666 4.81017 38.3996C4.29017 38.1396 3.82017 37.7896 3.41017 37.3797C3.00017 36.9697 2.65017 36.4996 2.39017 35.9796C2.12556 35.4575 1.9434 34.8975 1.85017 34.3196C1.75017 33.6996 1.69017 33.0696 1.68017 32.4396C1.67017 32.2296 1.67017 31.5296 1.67017 31.5296V8.43965C1.67017 8.43965 1.68017 7.74965 1.68017 7.54965C1.70017 6.91965 1.75017 6.29965 1.85017 5.67965C1.95017 5.09965 2.13017 4.53965 2.40017 4.01965C2.66017 3.49965 3.00017 3.02965 3.42017 2.61965C3.82017 2.20965 4.30017 1.85965 4.81017 1.59965C5.33017 1.33965 5.89017 1.14965 6.46017 1.05965C7.08017 0.959648 7.71017 0.899648 8.34017 0.899648L9.24017 0.889648H126.54L127.45 0.899648C128.07 0.909648 128.69 0.959648 129.31 1.05965C131.068 1.34307 132.587 2.44568 133.4 4.02965C133.66 4.54965 133.84 5.10965 133.94 5.67965C134.04 6.29965 134.1 6.92965 134.11 7.56965V8.45965C134.12 8.83965 134.12 9.18965 134.12 9.54965V30.4796C134.12 30.8396 134.12 31.1996 134.11 31.5596V32.4896C134.1 33.1096 134.04 33.7296 133.94 34.3396C133.845 34.9204 133.663 35.4834 133.4 36.0096C133.14 36.5196 132.79 36.9896 132.38 37.3996C131.97 37.8096 131.5 38.1596 130.98 38.4196C130.45 38.6896 129.89 38.8697 129.31 38.9697C128.69 39.0696 128.07 39.1297 127.44 39.1297C127.15 39.1396 126.84 39.1396 126.54 39.1396H125.46L9.24017 39.1196Z" fill="black"/>
<path d="M31.95 20.2698C31.97 18.4998 32.9 16.8598 34.42 15.9298C33.461 14.5595 31.9118 13.7218 30.24 13.6698C28.48 13.4898 26.78 14.7198 25.88 14.7198C24.97 14.7198 23.59 13.6898 22.1 13.7198C20.1483 13.7838 18.3725 14.8651 17.42 16.5698C15.4 20.0698 16.91 25.2198 18.84 28.0498C19.81 29.4398 20.94 30.9898 22.43 30.9298C23.88 30.8698 24.42 29.9998 26.17 29.9998C27.91 29.9998 28.41 30.9298 29.93 30.8898C31.49 30.8598 32.47 29.4998 33.4 28.0998C34.1 27.1098 34.63 26.0198 34.99 24.8598C33.1471 24.0789 31.95 22.2714 31.95 20.2698Z" fill="white"/>
<path d="M29.0899 11.8097C29.9394 10.7913 30.3591 9.48216 30.2599 8.15967C28.9599 8.29967 27.7599 8.91967 26.8999 9.89967C26.0499 10.8697 25.6199 12.1297 25.6999 13.4197C27.0199 13.4197 28.2699 12.8297 29.0899 11.8097Z" fill="white"/>
<path fill-rule="evenodd" clip-rule="evenodd" d="M84.1701 29.4502C82.4601 29.4502 81.2001 28.6102 81.0601 27.3202L79.0801 27.2902C79.2001 29.6402 81.1501 31.1302 84.0301 31.1302C87.1101 31.1302 89.0501 29.6102 89.0501 27.1802C89.0501 25.2802 87.9501 24.2102 85.2801 23.5802L83.8501 23.2302C82.1701 22.8202 81.4901 22.2802 81.4901 21.3602C81.4901 20.2102 82.5601 19.4202 84.1301 19.4202C85.7001 19.4202 86.7701 20.2002 86.8901 21.5002H88.8501C88.7901 19.2602 86.9101 17.7202 84.1601 17.7202C81.3801 17.7202 79.43 19.2602 79.43 21.5002C79.43 23.3102 80.5301 24.4202 82.9201 25.0002L84.6001 25.4102C86.2801 25.8302 86.9901 26.4302 86.9901 27.4402C86.9901 28.6002 85.8101 29.4502 84.1701 29.4502ZM50.3001 27.43H45.3501L44.1601 30.94H42.0601L46.7501 17.95H48.9301L53.6201 30.94H51.4901L50.3001 27.43ZM45.8601 25.8H49.7901L47.8501 20.1H47.8001L45.8601 25.8ZM59.8001 31.0299C62.1701 31.0299 63.7501 29.1399 63.7501 26.1999C63.7501 23.2699 62.1601 21.3699 59.7801 21.3699C58.5427 21.3276 57.3822 21.9693 56.7601 23.0399H56.7201V21.4599H54.8401V34.0599H56.7801V29.3699H56.8201C57.4101 30.4499 58.5701 31.0899 59.8001 31.0299ZM61.7501 26.2002C61.7501 24.2802 60.7601 23.0202 59.2501 23.0202C57.7601 23.0202 56.7701 24.3102 56.7701 26.2002C56.7701 28.1102 57.7701 29.3902 59.2501 29.3902C60.7601 29.3902 61.7501 28.1402 61.7501 26.2002ZM70.2201 31.0299C72.5901 31.0299 74.1701 29.1399 74.1701 26.1999C74.1701 23.2699 72.5901 21.3699 70.2001 21.3699C68.9626 21.3276 67.8021 21.9693 67.1801 23.0399H67.1401V21.4599H65.2601V34.0599H67.2001V29.3699H67.2401C67.8301 30.4499 68.9901 31.0899 70.2201 31.0299ZM72.18 26.2002C72.18 24.2802 71.19 23.0202 69.68 23.0202C68.19 23.0202 67.2 24.3102 67.2 26.2002C67.2 28.1102 68.2 29.3902 69.68 29.3902C71.18 29.3902 72.18 28.1402 72.18 26.2002ZM93.2401 19.2201V21.4601H95.0401V23.0001H93.2401V28.2201C93.2401 29.0301 93.6001 29.4101 94.3901 29.4101C94.6001 29.4101 94.8201 29.3901 95.0301 29.3701V30.9001C94.6701 30.9701 94.3101 31.0001 93.9501 30.9901C92.0301 30.9901 91.2801 30.2701 91.2801 28.4301V23.0001H89.9001V21.4601H91.2801V19.2201H93.2401ZM100.57 21.35C97.84 21.35 96.08 23.22 96.08 26.2C96.08 29.19 97.82 31.05 100.57 31.05C103.32 31.05 105.06 29.19 105.06 26.2C105.06 23.22 103.32 21.35 100.57 21.35ZM103.09 26.2C103.09 24.16 102.15 22.95 100.58 22.95C99.0001 22.95 98.0701 24.17 98.0701 26.2C98.0701 28.25 99.0101 29.45 100.58 29.45C102.15 29.45 103.09 28.25 103.09 26.2ZM108.52 21.4599H106.67V30.9299H108.61V25.3099C108.549 24.7416 108.738 24.1748 109.127 23.7565C109.517 23.3382 110.069 23.1096 110.64 23.1299C110.93 23.1199 111.23 23.1599 111.51 23.2499V21.4299C111.29 21.3799 111.06 21.3599 110.84 21.3599C109.771 21.3181 108.819 22.0319 108.56 23.0699H108.52V21.4599ZM120.48 28.15C120.22 29.87 118.54 31.05 116.4 31.05C113.64 31.05 111.93 29.2 111.93 26.24C111.93 23.27 113.65 21.34 116.31 21.34C118.93 21.34 120.58 23.14 120.58 26.01V26.68H113.89V26.8C113.828 27.5061 114.071 28.2051 114.559 28.7195C115.047 29.234 115.732 29.5145 116.44 29.49C117.38 29.58 118.27 29.04 118.63 28.16L120.48 28.15ZM118.65 25.3302H113.91C113.91 24.6919 114.164 24.0797 114.616 23.6293C115.069 23.1789 115.682 22.9273 116.32 22.9302H116.5C117.76 23.0002 118.72 24.0702 118.65 25.3302Z" fill="white"/>
<path fill-rule="evenodd" clip-rule="evenodd" d="M67.8602 7.86035H68.7902V14.4104H67.8602V7.86035ZM48.5601 10.7305C48.4513 9.20951 47.1313 8.06399 45.6101 8.17049H43.3601V14.4105H45.6101C47.4701 14.4105 48.5501 13.2605 48.5501 11.2705C48.5701 11.0905 48.5701 10.9105 48.5601 10.7305ZM45.51 13.5301H44.33V9.05013H45.51C45.64 9.05013 45.77 9.05013 45.89 9.07013C46.96 9.22013 47.72 10.2101 47.57 11.2901C47.59 11.4201 47.6 11.5601 47.59 11.6901C47.52 12.7701 46.59 13.5901 45.51 13.5301ZM49.65 12.0505C49.53 10.8205 50.43 9.73049 51.66 9.62049C52.89 9.50049 53.98 10.4005 54.09 11.6305C54.1 11.7705 54.1 11.9105 54.09 12.0605C54.21 13.2905 53.31 14.3805 52.08 14.5005C50.85 14.6205 49.76 13.7205 49.64 12.4905C49.63 12.3405 49.63 12.1905 49.65 12.0505ZM51.87 10.4303C52.67 10.4303 53.13 11.0303 53.13 12.0503C53.13 13.0803 52.67 13.6703 51.87 13.6703C51.06 13.6703 50.61 13.0803 50.61 12.0503C50.61 11.0303 51.06 10.4303 51.87 10.4303ZM59.04 14.4104L58.07 10.9404H58L57.03 14.4104H56.07L54.77 9.70036H55.71L56.55 13.2904H56.62L57.59 9.70036H58.48L59.45 13.2904H59.52L60.36 9.70036H61.29L60 14.4104H59.04ZM63.28 9.7H62.38V14.41H63.31V11.49C63.34 10.89 63.84 10.43 64.44 10.46C65.13 10.46 65.46 10.83 65.46 11.59V14.41H66.39V11.36C66.4571 10.8999 66.3117 10.4342 65.9948 10.094C65.6779 9.75374 65.2237 9.57571 64.76 9.61C64.16 9.56 63.59 9.9 63.35 10.45H63.28V9.7ZM72.1 9.62038C70.87 9.73038 69.97 10.8204 70.09 12.0504C70.07 12.1904 70.07 12.3404 70.08 12.4804C70.2 13.7104 71.29 14.6104 72.52 14.4904C73.75 14.3704 74.65 13.2804 74.53 12.0504C74.594 11.3883 74.3587 10.7323 73.8884 10.262C73.418 9.7917 72.762 9.55633 72.1 9.62038ZM73.57 12.0503C73.57 11.0303 73.11 10.4303 72.31 10.4303C71.5 10.4303 71.05 11.0303 71.05 12.0503C71.05 13.0803 71.5 13.6703 72.31 13.6703C73.11 13.6703 73.57 13.0803 73.57 12.0503ZM77.26 11.6703C76.14 11.7403 75.51 12.2303 75.51 13.0803C75.51 13.1203 75.51 13.1703 75.52 13.2103C75.6 13.9903 76.3 14.5603 77.08 14.4803C77.66 14.5103 78.2 14.2203 78.5 13.7403H78.57V14.4003H79.47V11.1803C79.47 10.1903 78.8 9.60026 77.62 9.60026C76.56 9.60026 75.8 10.1203 75.7 10.9303H76.6C76.7 10.6003 77.06 10.4103 77.58 10.4103C78.21 10.4103 78.54 10.6903 78.54 11.1903V11.6003L77.26 11.6703ZM78.54 12.6701V12.2801L77.39 12.3501C76.74 12.3901 76.45 12.6101 76.45 13.0301C76.45 13.4501 76.82 13.7001 77.32 13.7001C77.93 13.7601 78.47 13.3201 78.54 12.7101V12.6701ZM82.6401 9.62035C81.4501 9.62035 80.6801 10.5604 80.6801 12.0504C80.6801 13.5404 81.4401 14.4904 82.6401 14.4904C83.2501 14.5104 83.8201 14.2004 84.1201 13.6704H84.1901V14.4104H85.0801V7.86035H84.1501V10.4504H84.0801C83.8001 9.91035 83.2401 9.59035 82.6401 9.62035ZM81.65 12.0501C81.65 13.0501 82.12 13.6501 82.91 13.6501C83.69 13.6501 84.18 13.0401 84.18 12.0501C84.18 11.0701 83.69 10.4501 82.91 10.4501C82.12 10.4501 81.65 11.0601 81.65 12.0501ZM90.9401 9.62049C89.7101 9.73049 88.8101 10.8205 88.9301 12.0505C88.9201 12.1905 88.9201 12.3405 88.9201 12.4905C89.0401 13.7205 90.1301 14.6205 91.3601 14.5005C92.5901 14.3805 93.4901 13.2905 93.3701 12.0605C93.3801 11.9105 93.3801 11.7705 93.3701 11.6305C93.2601 10.4005 92.1701 9.50049 90.9401 9.62049ZM92.4201 12.0503C92.4201 11.0303 91.9601 10.4303 91.1601 10.4303C90.3501 10.4303 89.9001 11.0303 89.9001 12.0503C89.9001 13.0803 90.3501 13.6703 91.1601 13.6703C91.9601 13.6703 92.4201 13.0803 92.4201 12.0503ZM95.52 9.7H94.62V14.41H95.55V11.49C95.58 10.89 96.08 10.43 96.68 10.46C97.37 10.46 97.7 10.83 97.7 11.59V14.41H98.63V11.36C98.6971 10.8999 98.5517 10.4342 98.2348 10.094C97.9179 9.75374 97.4637 9.57571 97 9.61C96.4 9.56 95.83 9.9 95.59 10.45H95.52V9.7ZM103.88 8.52007V9.71007H104.9V10.4901H103.88V12.9101C103.88 13.4001 104.08 13.6201 104.55 13.6201C104.67 13.6201 104.79 13.6101 104.9 13.6001V14.3701C104.73 14.4001 104.56 14.4201 104.39 14.4201C103.36 14.4201 102.94 14.0601 102.94 13.1501V10.5001H102.19V9.72007H102.94V8.52007H103.88ZM107.09 7.86035H106.17L106.16 14.4204H107.09V11.6704C107.09 11.6507 107.089 11.63 107.088 11.6089C107.086 11.5656 107.083 11.5207 107.09 11.4804C107.113 11.1882 107.252 10.9173 107.475 10.7277C107.698 10.5381 107.988 10.4455 108.28 10.4704C108.94 10.4704 109.29 10.8504 109.29 11.6004V14.4204H110.22V11.3804L110.221 11.3667V11.3666V11.3665C110.231 11.272 110.24 11.1857 110.23 11.0904C110.19 10.2304 109.46 9.57035 108.6 9.62035C107.99 9.57035 107.41 9.90035 107.16 10.4604H107.09V7.86035ZM115.64 13.14C115.38 14.03 114.52 14.6 113.6 14.5C112.42 14.5281 111.438 13.5997 111.4 12.42C111.4 12.3 111.4 12.19 111.42 12.07C111.26 10.88 112.1 9.79003 113.29 9.63003C113.39 9.62003 113.49 9.61003 113.6 9.61003C114.91 9.61003 115.7 10.51 115.7 11.98V12.3H112.37V12.35C112.31 13.04 112.82 13.64 113.51 13.7H113.63C114.08 13.75 114.53 13.53 114.75 13.13L115.64 13.14ZM114.75 11.6201H112.37V11.5901C112.373 11.2701 112.503 10.9644 112.732 10.7409C112.961 10.5175 113.27 10.3948 113.59 10.4001H113.7C114.33 10.4501 114.8 10.9901 114.75 11.6201Z" fill="white"/>
</svg>
