<svg width="14" height="25" viewBox="0 0 14 25" fill="none" xmlns="http://www.w3.org/2000/svg">
<path d="M8.875 24.5V13.5312H12.5312L13.0938 9.26562H8.875V6.54688C8.875 5.9375 9 5.44531 9.25 5.07031C9.51562 4.67969 10.0938 4.48438 10.9844 4.48438H13.2344V0.6875C13.0469 0.640625 12.6484 0.601563 12.0391 0.570312C11.4297 0.523438 10.7344 0.5 9.95312 0.5C9.14062 0.5 8.39062 0.625 7.70312 0.875C7.03125 1.10938 6.45312 1.46875 5.96875 1.95312C5.5 2.42188 5.13281 3.00781 4.86719 3.71094C4.60156 4.39844 4.46875 5.20312 4.46875 6.125V9.26562H0.765625V13.5312H4.46875V24.5H8.875Z" fill="#828282"/>
</svg>
