<svg width="24" height="25" viewBox="0 0 24 25" fill="none" xmlns="http://www.w3.org/2000/svg">
<path d="M12 2.65625C13.6094 2.65625 14.6562 2.66406 15.1406 2.67969C15.625 2.69531 16.1875 2.71875 16.8281 2.75C17.4375 2.76562 17.9062 2.8125 18.2344 2.89062C18.5781 2.96875 18.8594 3.04687 19.0781 3.125C19.3594 3.23437 19.6094 3.36719 19.8281 3.52344C20.0469 3.66406 20.25 3.82812 20.4375 4.01562C20.6406 4.21875 20.8125 4.42969 20.9531 4.64844C21.1094 4.86719 21.2344 5.10937 21.3281 5.375C21.4219 5.60938 21.5078 5.89844 21.5859 6.24219C21.6641 6.57031 21.7188 7.03125 21.75 7.625C21.7656 8.28125 21.7812 8.85156 21.7969 9.33594C21.8281 9.82031 21.8438 10.875 21.8438 12.5C21.8438 14.1094 21.8359 15.1562 21.8203 15.6406C21.8047 16.125 21.7812 16.6875 21.75 17.3281C21.7344 17.9375 21.6875 18.4141 21.6094 18.7578C21.5312 19.0859 21.4531 19.3594 21.375 19.5781C21.2656 19.8594 21.1328 20.1094 20.9766 20.3281C20.8359 20.5469 20.6719 20.75 20.4844 20.9375C20.2812 21.1406 20.0703 21.3203 19.8516 21.4766C19.6328 21.6172 19.3906 21.7344 19.125 21.8281C18.8906 21.9219 18.6016 22.0078 18.2578 22.0859C17.9297 22.1641 17.4688 22.2188 16.875 22.25C16.2188 22.2656 15.6484 22.2891 15.1641 22.3203C14.6797 22.3359 13.625 22.3438 12 22.3438C10.3906 22.3438 9.34375 22.3359 8.85938 22.3203C8.375 22.3047 7.8125 22.2812 7.17188 22.25C6.5625 22.2344 6.08594 22.1875 5.74219 22.1094C5.41406 22.0312 5.14062 21.9531 4.92188 21.875C4.64062 21.7656 4.39062 21.6406 4.17188 21.5C3.95312 21.3438 3.75 21.1719 3.5625 20.9844C3.35938 20.7812 3.17969 20.5703 3.02344 20.3516C2.88281 20.1328 2.76562 19.8906 2.67188 19.625C2.57812 19.3906 2.49219 19.1094 2.41406 18.7812C2.33594 18.4375 2.28125 17.9688 2.25 17.375C2.23438 16.7188 2.21094 16.1484 2.17969 15.6641C2.16406 15.1797 2.15625 14.125 2.15625 12.5C2.15625 10.8906 2.16406 9.84375 2.17969 9.35938C2.19531 8.875 2.21875 8.3125 2.25 7.67188C2.26562 7.0625 2.3125 6.59375 2.39062 6.26562C2.46875 5.92188 2.54688 5.64063 2.625 5.42188C2.73438 5.14062 2.85938 4.89063 3 4.67188C3.15625 4.45312 3.32812 4.25 3.51562 4.0625C3.71875 3.85938 3.92969 3.6875 4.14844 3.54688C4.36719 3.39063 4.60938 3.26562 4.875 3.17188C5.10938 3.07812 5.39062 2.99219 5.71875 2.91406C6.0625 2.83594 6.53125 2.78125 7.125 2.75C7.78125 2.73438 8.35156 2.71875 8.83594 2.70312C9.32031 2.67187 10.375 2.65625 12 2.65625ZM12 0.5C10.3594 0.5 9.28906 0.507813 8.78906 0.523438C8.28906 0.539062 7.71875 0.5625 7.07812 0.59375C6.42188 0.609375 5.85938 0.664062 5.39062 0.757812C4.9375 0.851562 4.53125 0.96875 4.17188 1.10938C3.78125 1.26562 3.40625 1.46094 3.04688 1.69531C2.6875 1.91406 2.34375 2.1875 2.01562 2.51562C1.6875 2.84375 1.41406 3.1875 1.19531 3.54688C0.976562 3.89062 0.78125 4.26562 0.609375 4.67188C0.46875 5.04688 0.351562 5.46094 0.257812 5.91406C0.179688 6.36719 0.125 6.92188 0.09375 7.57812C0.078125 8.20312 0.0546875 8.77344 0.0234375 9.28906C0.0078125 9.78906 0 10.8594 0 12.5C0 14.1406 0.0078125 15.2109 0.0234375 15.7109C0.0390625 16.2109 0.0625 16.7812 0.09375 17.4219C0.109375 18.0781 0.164062 18.6406 0.257812 19.1094C0.351562 19.5625 0.46875 19.9688 0.609375 20.3281C0.765625 20.7188 0.953125 21.0938 1.17188 21.4531C1.40625 21.8125 1.6875 22.1562 2.01562 22.4844C2.34375 22.8125 2.67969 23.0859 3.02344 23.3047C3.38281 23.5234 3.76562 23.7188 4.17188 23.8906C4.54688 24.0312 4.96094 24.1406 5.41406 24.2188C5.86719 24.3125 6.42188 24.375 7.07812 24.4062C7.70312 24.4219 8.26562 24.4375 8.76562 24.4531C9.28125 24.4844 10.3594 24.5 12 24.5C13.6406 24.5 14.7109 24.4922 15.2109 24.4766C15.7109 24.4609 16.2812 24.4375 16.9219 24.4062C17.5781 24.3906 18.1328 24.3359 18.5859 24.2422C19.0547 24.1484 19.4688 24.0312 19.8281 23.8906C20.2188 23.7344 20.5938 23.5391 20.9531 23.3047C21.3125 23.0859 21.6562 22.8125 21.9844 22.4844C22.3125 22.1562 22.5859 21.8203 22.8047 21.4766C23.0234 21.1172 23.2188 20.7344 23.3906 20.3281C23.5312 19.9531 23.6406 19.5391 23.7188 19.0859C23.8125 18.6328 23.875 18.0781 23.9062 17.4219C23.9219 16.7969 23.9375 16.2344 23.9531 15.7344C23.9844 15.2188 24 14.1406 24 12.5C24 10.8594 23.9922 9.78906 23.9766 9.28906C23.9609 8.78906 23.9375 8.21875 23.9062 7.57812C23.8906 6.92188 23.8359 6.36719 23.7422 5.91406C23.6484 5.44531 23.5312 5.03125 23.3906 4.67188C23.2344 4.28125 23.0391 3.90625 22.8047 3.54688C22.5859 3.1875 22.3125 2.84375 21.9844 2.51562C21.6562 2.1875 21.3125 1.91406 20.9531 1.69531C20.6094 1.47656 20.2344 1.28125 19.8281 1.10938C19.4531 0.96875 19.0391 0.859375 18.5859 0.78125C18.1328 0.6875 17.5781 0.625 16.9219 0.59375C16.2969 0.578125 15.7266 0.5625 15.2109 0.546875C14.7109 0.515625 13.6406 0.5 12 0.5ZM12 6.3125C11.1406 6.3125 10.3359 6.47656 9.58594 6.80469C8.83594 7.11719 8.17969 7.55469 7.61719 8.11719C7.05469 8.67969 6.60938 9.33594 6.28125 10.0859C5.96875 10.8359 5.8125 11.6406 5.8125 12.5C5.8125 13.3594 5.96875 14.1641 6.28125 14.9141C6.60938 15.6641 7.05469 16.3203 7.61719 16.8828C8.17969 17.4453 8.83594 17.8906 9.58594 18.2188C10.3359 18.5312 11.1406 18.6875 12 18.6875C12.8594 18.6875 13.6641 18.5312 14.4141 18.2188C15.1641 17.8906 15.8203 17.4453 16.3828 16.8828C16.9453 16.3203 17.3828 15.6641 17.6953 14.9141C18.0234 14.1641 18.1875 13.3594 18.1875 12.5C18.1875 11.6406 18.0234 10.8359 17.6953 10.0859C17.3828 9.33594 16.9453 8.67969 16.3828 8.11719C15.8203 7.55469 15.1641 7.11719 14.4141 6.80469C13.6641 6.47656 12.8594 6.3125 12 6.3125ZM12 16.5312C10.9062 16.5312 9.96094 16.1406 9.16406 15.3594C8.36719 14.5625 7.96875 13.6094 7.96875 12.5C7.96875 11.4062 8.35938 10.4609 9.14062 9.66406C9.9375 8.86719 10.8906 8.46875 12 8.46875C13.0938 8.46875 14.0391 8.86719 14.8359 9.66406C15.6328 10.4453 16.0312 11.3906 16.0312 12.5C16.0312 13.5938 15.6328 14.5391 14.8359 15.3359C14.0547 16.1328 13.1094 16.5312 12 16.5312ZM19.8281 6.07812C19.8281 6.46875 19.6953 6.8125 19.4297 7.10938C19.1641 7.39062 18.8281 7.53125 18.4219 7.53125C18.0312 7.53125 17.6875 7.39062 17.3906 7.10938C17.1094 6.82812 16.9688 6.48438 16.9688 6.07812C16.9688 5.6875 17.1094 5.35938 17.3906 5.09375C17.6719 4.8125 18.0156 4.67188 18.4219 4.67188C18.8125 4.67188 19.1406 4.80469 19.4062 5.07031C19.6875 5.33594 19.8281 5.67187 19.8281 6.07812Z" fill="#828282"/>
</svg>
