<svg width="135" height="40" viewBox="0 0 135 40" fill="none" xmlns="http://www.w3.org/2000/svg">
<path d="M130 40H5C2.25 40 0 37.75 0 35V5C0 2.25 2.25 0 5 0H130C132.75 0 135 2.25 135 5V35C135 37.75 132.75 40 130 40Z" fill="black"/>
<path fill-rule="evenodd" clip-rule="evenodd" d="M5 0H130C132.75 0 135 2.25 135 5V35C135 37.75 132.75 40 130 40H5C2.25 40 0 37.75 0 35V5C0 2.25 2.25 0 5 0ZM134.2 5.00024C134.2 2.68064 132.32 0.800239 130 0.800239H4.99997C2.68037 0.800239 0.799967 2.68064 0.799967 5.00024V35.0002C0.799967 37.3198 2.68037 39.2002 4.99997 39.2002H130C132.32 39.2002 134.2 37.3198 134.2 35.0002V5.00024Z" fill="white"/>
<path fill-rule="evenodd" clip-rule="evenodd" d="M46.67 12.2401C47.17 11.7501 47.42 11.0801 47.42 10.2401C47.42 10.1089 47.4024 9.9689 47.3837 9.82012L47.38 9.79012H44.47V10.5201H46.65C46.61 11.0401 46.44 11.4501 46.15 11.7401C45.7 12.1901 45.14 12.4101 44.47 12.4101C43.84 12.4101 43.29 12.1801 42.83 11.7401C42.37 11.3001 42.14 10.7201 42.14 10.0101C42.14 9.30012 42.37 8.72012 42.83 8.28012C43.29 7.83012 43.84 7.61012 44.47 7.61012C45.17 7.61012 45.71 7.85012 46.11 8.32012L46.64 7.79012C46.4 7.51012 46.09 7.29012 45.7 7.12012C45.31 6.95012 44.9 6.87012 44.47 6.87012C43.6 6.87012 42.87 7.17012 42.26 7.77012C41.65 8.37012 41.35 9.11012 41.35 10.0001C41.35 10.8801 41.65 11.6301 42.26 12.2301C42.87 12.8301 43.6 13.1301 44.47 13.1301C45.37 13.1301 46.11 12.8301 46.67 12.2401ZM49.3 7.74005H52.03V7.00005H48.53V13.0001H52.03V12.2601H49.3V10.3601H51.76V9.64005H49.3V7.74005ZM55.2699 13.0001H54.5099V7.74005H52.8299V7.00005H56.9499V7.74005H55.2699V13.0001ZM59.9399 7.00005V13.0001H60.7099V7.00005H59.9399ZM64.12 13.0001H63.36V7.74005H61.68V7.00005H65.8V7.74005H64.12V13.0001ZM71.4099 13.1301C72.2899 13.1301 73.0199 12.8301 73.6099 12.2201C74.1999 11.6201 74.4899 10.8801 74.4999 10.0001C74.4999 9.13012 74.1999 8.39012 73.6099 7.78012C73.0099 7.17012 72.2799 6.87012 71.4099 6.87012C70.5299 6.87012 69.7999 7.17012 69.2099 7.78012C68.6199 8.38012 68.3299 9.13012 68.3299 10.0001C68.3299 10.8701 68.6199 11.6101 69.2099 12.2201C69.7999 12.8301 70.5299 13.1301 71.4099 13.1301ZM69.78 11.7201C70.22 12.1701 70.77 12.3901 71.41 12.3901C72.05 12.3901 72.6 12.1701 73.04 11.7201C73.48 11.2701 73.71 10.7001 73.71 10.0001C73.71 9.3001 73.49 8.7301 73.04 8.2801C72.6 7.8301 72.05 7.6001 71.41 7.6001C70.77 7.6001 70.22 7.8201 69.78 8.2701C69.34 8.7301 69.11 9.3001 69.11 10.0001C69.11 10.7001 69.34 11.2701 69.78 11.7201ZM75.58 7.00005V13.0001H76.36V9.27005L76.33 8.11005H76.36L79.41 13.0001H80.21V7.00005H79.44V10.5101L79.47 11.6701H79.44L76.52 7.00005H75.58Z" fill="white"/>
<path d="M46.67 12.2401L46.5999 12.1686L46.5974 12.1713L46.67 12.2401ZM47.3837 9.82012L47.2845 9.83256L47.2845 9.83257L47.3837 9.82012ZM47.38 9.79012L47.4792 9.77768L47.4682 9.69012H47.38V9.79012ZM44.47 9.79012V9.69012H44.37V9.79012H44.47ZM44.47 10.5201H44.37V10.6201H44.47V10.5201ZM46.65 10.5201L46.7497 10.5278L46.758 10.4201H46.65V10.5201ZM42.83 11.7401L42.7609 11.8124L42.83 11.7401ZM42.83 8.28012L42.8991 8.35239L42.8999 8.3516L42.83 8.28012ZM46.11 8.32012L46.0338 8.38493L46.1041 8.46746L46.1807 8.39083L46.11 8.32012ZM46.64 7.79012L46.7107 7.86083L46.7762 7.79535L46.7159 7.72504L46.64 7.79012ZM45.7 7.12012L45.66 7.21179V7.21179L45.7 7.12012ZM42.26 7.77012L42.1899 7.69882L42.26 7.77012ZM42.26 12.2301L42.1899 12.3014L42.26 12.2301ZM52.03 7.74005V7.84005H52.13V7.74005H52.03ZM49.3 7.74005V7.64005H49.2V7.74005H49.3ZM52.03 7.00005H52.13V6.90005H52.03V7.00005ZM48.53 7.00005V6.90005H48.43V7.00005H48.53ZM48.53 13.0001H48.43V13.1001H48.53V13.0001ZM52.03 13.0001V13.1001H52.13V13.0001H52.03ZM52.03 12.2601H52.13V12.1601H52.03V12.2601ZM49.3 12.2601H49.2V12.3601H49.3V12.2601ZM49.3 10.3601V10.2601H49.2V10.3601H49.3ZM51.76 10.3601V10.4601H51.86V10.3601H51.76ZM51.76 9.64005H51.86V9.54005H51.76V9.64005ZM49.3 9.64005H49.2V9.74005H49.3V9.64005ZM54.5099 13.0001H54.4099V13.1001H54.5099V13.0001ZM55.2699 13.0001V13.1001H55.3699V13.0001H55.2699ZM54.5099 7.74005H54.6099V7.64005H54.5099V7.74005ZM52.8299 7.74005H52.7299V7.84005H52.8299V7.74005ZM52.8299 7.00005V6.90005H52.7299V7.00005H52.8299ZM56.9499 7.00005H57.0499V6.90005H56.9499V7.00005ZM56.9499 7.74005V7.84005H57.0499V7.74005H56.9499ZM55.2699 7.74005V7.64005H55.1699V7.74005H55.2699ZM59.9399 13.0001H59.8399V13.1001H59.9399V13.0001ZM59.9399 7.00005V6.90005H59.8399V7.00005H59.9399ZM60.7099 13.0001V13.1001H60.8099V13.0001H60.7099ZM60.7099 7.00005H60.8099V6.90005H60.7099V7.00005ZM63.36 13.0001H63.26V13.1001H63.36V13.0001ZM64.12 13.0001V13.1001H64.22V13.0001H64.12ZM63.36 7.74005H63.46V7.64005H63.36V7.74005ZM61.68 7.74005H61.58V7.84005H61.68V7.74005ZM61.68 7.00005V6.90005H61.58V7.00005H61.68ZM65.8 7.00005H65.9V6.90005H65.8V7.00005ZM65.8 7.74005V7.84005H65.9V7.74005H65.8ZM64.12 7.74005V7.64005H64.02V7.74005H64.12ZM73.6099 12.2201L73.5386 12.15L73.5381 12.1506L73.6099 12.2201ZM74.4999 10.0001L74.5999 10.0013V10.0001H74.4999ZM73.6099 7.78012L73.6818 7.71059L73.6812 7.70999L73.6099 7.78012ZM69.2099 7.78012L69.2812 7.85023L69.2818 7.84964L69.2099 7.78012ZM69.2099 12.2201L69.1381 12.2896L69.2099 12.2201ZM73.04 8.2801L72.9685 8.35001L72.9693 8.35081L73.04 8.2801ZM69.78 8.2701L69.7085 8.20018L69.7077 8.20098L69.78 8.2701ZM75.58 13.0001H75.48V13.1001H75.58V13.0001ZM75.58 7.00005V6.90005H75.48V7.00005H75.58ZM76.36 13.0001V13.1001H76.46V13.0001H76.36ZM76.36 9.27005H76.46L76.4599 9.26747L76.36 9.27005ZM76.33 8.11005V8.01005H76.2274L76.23 8.11264L76.33 8.11005ZM76.36 8.11005L76.4448 8.05713L76.4155 8.01005H76.36V8.11005ZM79.41 13.0001L79.3251 13.053L79.3545 13.1001H79.41V13.0001ZM80.21 13.0001V13.1001H80.31V13.0001H80.21ZM80.21 7.00005H80.31V6.90005H80.21V7.00005ZM79.44 7.00005V6.90005H79.34V7.00005H79.44ZM79.44 10.5101H79.3399L79.34 10.5126L79.44 10.5101ZM79.47 11.6701V11.7701H79.5726L79.5699 11.6675L79.47 11.6701ZM79.44 11.6701L79.3552 11.7231L79.3846 11.7701H79.44V11.6701ZM76.52 7.00005L76.6048 6.94704L76.5754 6.90005H76.52V7.00005ZM47.32 10.2401C47.32 11.0592 47.0769 11.7013 46.6 12.1687L46.74 12.3115C47.263 11.7989 47.52 11.101 47.52 10.2401H47.32ZM47.2845 9.83257C47.3034 9.98283 47.32 10.1163 47.32 10.2401H47.52C47.52 10.1015 47.5014 9.95498 47.483 9.80767L47.2845 9.83257ZM47.2808 9.80255L47.2845 9.83256L47.483 9.80768L47.4792 9.77768L47.2808 9.80255ZM44.47 9.89012H47.38V9.69012H44.47V9.89012ZM44.57 10.5201V9.79012H44.37V10.5201H44.57ZM46.65 10.4201H44.47V10.6201H46.65V10.4201ZM46.2207 11.8108C46.5315 11.5 46.7083 11.0654 46.7497 10.5278L46.5503 10.5124C46.5116 11.0148 46.3485 11.4002 46.0793 11.6694L46.2207 11.8108ZM44.47 12.5101C45.1644 12.5101 45.7505 12.281 46.2207 11.8108L46.0793 11.6694C45.6495 12.0992 45.1156 12.3101 44.47 12.3101V12.5101ZM42.7609 11.8124C43.2386 12.2693 43.813 12.5101 44.47 12.5101V12.3101C43.8669 12.3101 43.3414 12.0909 42.8991 11.6679L42.7609 11.8124ZM42.04 10.0101C42.04 10.7437 42.2786 11.3511 42.7609 11.8124L42.8991 11.6679C42.4613 11.2491 42.24 10.6965 42.24 10.0101H42.04ZM42.7609 8.20785C42.2786 8.66913 42.04 9.27652 42.04 10.0101H42.24C42.24 9.32371 42.4613 8.7711 42.8991 8.35238L42.7609 8.20785ZM44.47 7.51012C43.814 7.51012 43.2389 7.74023 42.76 8.20863L42.8999 8.3516C43.3411 7.92 43.8659 7.71012 44.47 7.71012V7.51012ZM46.1861 8.25531C45.7651 7.76059 45.196 7.51012 44.47 7.51012V7.71012C45.1439 7.71012 45.6549 7.93964 46.0338 8.38493L46.1861 8.25531ZM46.5693 7.71941L46.0393 8.24941L46.1807 8.39083L46.7107 7.86083L46.5693 7.71941ZM45.66 7.21179C46.0385 7.37677 46.3354 7.58845 46.564 7.8552L46.7159 7.72504C46.4645 7.43179 46.1414 7.20347 45.7399 7.02845L45.66 7.21179ZM44.47 6.97012C44.8872 6.97012 45.2835 7.04765 45.66 7.21179L45.7399 7.02845C45.3365 6.85258 44.9128 6.77012 44.47 6.77012V6.97012ZM42.3301 7.84141C42.9213 7.25991 43.6261 6.97012 44.47 6.97012V6.77012C43.5739 6.77012 42.8187 7.08032 42.1899 7.69882L42.3301 7.84141ZM41.45 10.0001C41.45 9.13547 41.7402 8.42161 42.3301 7.84141L42.1899 7.69882C41.5597 8.31862 41.25 9.08477 41.25 10.0001H41.45ZM42.3301 12.1588C41.7403 11.5787 41.45 10.8549 41.45 10.0001H41.25C41.25 10.9053 41.5596 11.6815 42.1899 12.3014L42.3301 12.1588ZM44.47 13.0301C43.6261 13.0301 42.9213 12.7403 42.3301 12.1588L42.1899 12.3014C42.8187 12.9199 43.5739 13.2301 44.47 13.2301V13.0301ZM46.5974 12.1713C46.0584 12.7392 45.3457 13.0301 44.47 13.0301V13.2301C45.3943 13.2301 46.1616 12.921 46.7425 12.309L46.5974 12.1713ZM52.03 7.64005H49.3V7.84005H52.03V7.64005ZM51.93 7.00005V7.74005H52.13V7.00005H51.93ZM48.53 7.10005H52.03V6.90005H48.53V7.10005ZM48.63 13.0001V7.00005H48.43V13.0001H48.63ZM52.03 12.9001H48.53V13.1001H52.03V12.9001ZM51.93 12.2601V13.0001H52.13V12.2601H51.93ZM49.3 12.3601H52.03V12.1601H49.3V12.3601ZM49.2 10.3601V12.2601H49.4V10.3601H49.2ZM51.76 10.2601H49.3V10.4601H51.76V10.2601ZM51.66 9.64005V10.3601H51.86V9.64005H51.66ZM49.3 9.74005H51.76V9.54005H49.3V9.74005ZM49.2 7.74005V9.64005H49.4V7.74005H49.2ZM54.5099 13.1001H55.2699V12.9001H54.5099V13.1001ZM54.4099 7.74005V13.0001H54.6099V7.74005H54.4099ZM52.8299 7.84005H54.5099V7.64005H52.8299V7.84005ZM52.7299 7.00005V7.74005H52.9299V7.00005H52.7299ZM56.9499 6.90005H52.8299V7.10005H56.9499V6.90005ZM57.0499 7.74005V7.00005H56.8499V7.74005H57.0499ZM55.2699 7.84005H56.9499V7.64005H55.2699V7.84005ZM55.3699 13.0001V7.74005H55.1699V13.0001H55.3699ZM60.0399 13.0001V7.00005H59.8399V13.0001H60.0399ZM60.7099 12.9001H59.9399V13.1001H60.7099V12.9001ZM60.6099 7.00005V13.0001H60.8099V7.00005H60.6099ZM59.9399 7.10005H60.7099V6.90005H59.9399V7.10005ZM63.36 13.1001H64.12V12.9001H63.36V13.1001ZM63.26 7.74005V13.0001H63.46V7.74005H63.26ZM61.68 7.84005H63.36V7.64005H61.68V7.84005ZM61.58 7.00005V7.74005H61.78V7.00005H61.58ZM65.8 6.90005H61.68V7.10005H65.8V6.90005ZM65.9 7.74005V7.00005H65.7V7.74005H65.9ZM64.12 7.84005H65.8V7.64005H64.12V7.84005ZM64.22 13.0001V7.74005H64.02V13.0001H64.22ZM73.5381 12.1506C72.9678 12.7401 72.2642 13.0301 71.4099 13.0301V13.2301C72.3157 13.2301 73.072 12.9201 73.6818 12.2896L73.5381 12.1506ZM74.3999 9.99898C74.3902 10.8553 74.1091 11.5699 73.5386 12.15L73.6812 12.2902C74.2908 11.6703 74.5897 10.9049 74.5999 10.0013L74.3999 9.99898ZM73.5381 7.84964C74.1098 8.44077 74.3999 9.15576 74.3999 10.0001H74.5999C74.5999 9.10448 74.2901 8.33946 73.6818 7.71059L73.5381 7.84964ZM71.4099 6.97012C72.2539 6.97012 72.958 7.25989 73.5387 7.85024L73.6812 7.70999C73.0619 7.08035 72.306 6.77012 71.4099 6.77012V6.97012ZM69.2818 7.84964C69.852 7.26009 70.5557 6.97012 71.4099 6.97012V6.77012C70.5042 6.77012 69.7478 7.08015 69.1381 7.71059L69.2818 7.84964ZM68.4299 10.0001C68.4299 9.15441 68.711 8.43019 69.2812 7.85023L69.1386 7.71C68.5289 8.33004 68.2299 9.10582 68.2299 10.0001H68.4299ZM69.2818 12.1506C68.7106 11.5601 68.4299 10.8453 68.4299 10.0001H68.2299C68.2299 10.8949 68.5292 11.6602 69.1381 12.2896L69.2818 12.1506ZM71.4099 13.0301C70.5557 13.0301 69.852 12.7401 69.2818 12.1506L69.1381 12.2896C69.7478 12.9201 70.5042 13.2301 71.4099 13.2301V13.0301ZM71.41 12.2901C70.7953 12.2901 70.2716 12.0799 69.8515 11.6502L69.7085 11.79C70.1684 12.2603 70.7446 12.4901 71.41 12.4901V12.2901ZM72.9685 11.6502C72.5484 12.0799 72.0246 12.2901 71.41 12.2901V12.4901C72.0753 12.4901 72.6516 12.2603 73.1115 11.79L72.9685 11.6502ZM73.61 10.0001C73.61 10.6758 73.389 11.2201 72.9685 11.6502L73.1115 11.79C73.571 11.32 73.81 10.7244 73.81 10.0001H73.61ZM72.9693 8.35081C73.3983 8.77987 73.61 9.32336 73.61 10.0001H73.81C73.81 9.27684 73.5816 8.68033 73.1107 8.20939L72.9693 8.35081ZM71.41 7.7001C72.0235 7.7001 72.5476 7.91955 72.9685 8.35001L73.1115 8.21019C72.6524 7.74065 72.0765 7.5001 71.41 7.5001V7.7001ZM69.8515 8.34001C70.2716 7.91034 70.7953 7.7001 71.41 7.7001V7.5001C70.7446 7.5001 70.1684 7.72985 69.7085 8.20019L69.8515 8.34001ZM69.21 10.0001C69.21 9.3246 69.4309 8.77973 69.8522 8.33922L69.7077 8.20098C69.2491 8.68047 69.01 9.27559 69.01 10.0001H69.21ZM69.8515 11.6502C69.431 11.2201 69.21 10.6758 69.21 10.0001H69.01C69.01 10.7244 69.249 11.32 69.7085 11.79L69.8515 11.6502ZM75.68 13.0001V7.00005H75.48V13.0001H75.68ZM76.36 12.9001H75.58V13.1001H76.36V12.9001ZM76.26 9.27005V13.0001H76.46V9.27005H76.26ZM76.23 8.11264L76.26 9.27264L76.4599 9.26747L76.4299 8.10747L76.23 8.11264ZM76.36 8.01005H76.33V8.21005H76.36V8.01005ZM79.4948 12.9471L76.4448 8.05713L76.2751 8.16298L79.3251 13.053L79.4948 12.9471ZM80.21 12.9001H79.41V13.1001H80.21V12.9001ZM80.11 7.00005V13.0001H80.31V7.00005H80.11ZM79.44 7.10005H80.21V6.90005H79.44V7.10005ZM79.54 10.5101V7.00005H79.34V10.5101H79.54ZM79.5699 11.6675L79.5399 10.5075L79.34 10.5126L79.37 11.6726L79.5699 11.6675ZM79.44 11.7701H79.47V11.5701H79.44V11.7701ZM76.4352 7.05307L79.3552 11.7231L79.5248 11.617L76.6048 6.94704L76.4352 7.05307ZM75.58 7.10005H76.52V6.90005H75.58V7.10005Z" fill="white"/>
<path fill-rule="evenodd" clip-rule="evenodd" d="M47.74 23.0703V24.8603H52.06C51.93 25.8703 51.59 26.6203 51.08 27.1303C50.45 27.7603 49.47 28.4503 47.75 28.4503C45.09 28.4503 43.01 26.3103 43.01 23.6503C43.01 20.9903 45.09 18.8503 47.75 18.8503C49.18 18.8503 50.23 19.4103 51 20.1403L52.27 18.8703C51.19 17.8403 49.76 17.0503 47.74 17.0503C44.1 17.0503 41.04 20.0103 41.04 23.6603C41.04 27.3003 44.1 30.2703 47.74 30.2703C49.71 30.2703 51.19 29.6303 52.35 28.4203C53.54 27.2303 53.91 25.5503 53.91 24.2003C53.91 23.7803 53.88 23.3903 53.81 23.0703H47.74ZM58.82 21.7499C56.47 21.7499 54.55 23.5399 54.55 25.9999C54.55 28.4499 56.47 30.2499 58.82 30.2499C61.17 30.2499 63.09 28.4499 63.09 25.9999C63.09 23.5399 61.17 21.7499 58.82 21.7499ZM63.8699 25.9999C63.8699 23.5399 65.7899 21.7499 68.1399 21.7499C70.4899 21.7499 72.4099 23.5399 72.4099 25.9999C72.4099 28.4499 70.4899 30.2499 68.1399 30.2499C65.7899 30.2499 63.8699 28.4499 63.8699 25.9999ZM65.74 25.9999C65.74 27.5199 66.85 28.5799 68.14 28.5799C69.42 28.5799 70.54 27.5199 70.54 25.9999C70.54 24.4699 69.43 23.4199 68.14 23.4199C66.85 23.4199 65.74 24.4699 65.74 25.9999ZM56.4199 25.9999C56.4199 27.5199 57.5299 28.5799 58.8199 28.5799C60.1099 28.5799 61.2199 27.5199 61.2199 25.9999C61.2199 24.4699 60.1099 23.4199 58.8199 23.4199C57.5299 23.4199 56.4199 24.4699 56.4199 25.9999ZM89.4101 21.7499C91.6201 21.7499 92.7001 23.5099 93.0501 24.4599L93.2501 24.9399L87.5601 27.2899C87.9901 28.1399 88.6701 28.5799 89.6201 28.5799C90.5701 28.5799 91.2301 28.1099 91.7101 27.3999L93.1601 28.3699C92.7001 29.0599 91.5701 30.2499 89.6201 30.2499C87.2001 30.2499 85.4001 28.3799 85.4001 25.9999C85.4001 23.4699 87.2201 21.7499 89.4101 21.7499ZM87.2501 25.8803C87.2001 24.2403 88.5201 23.4003 89.4701 23.4003C90.2101 23.4003 90.8401 23.7703 91.0501 24.3003L87.2501 25.8803ZM84.4999 30H82.6299V17.5H84.4999V30ZM79.5601 22.6999H79.5001C79.0801 22.1999 78.2801 21.7499 77.2601 21.7499C75.1301 21.7499 73.1801 23.6199 73.1801 26.0199C73.1801 28.3999 75.1301 30.2599 77.2601 30.2599C78.2701 30.2599 79.0801 29.8099 79.5001 29.2899H79.5601V29.8999C79.5601 31.5299 78.6901 32.3999 77.2901 32.3999C76.1501 32.3999 75.4401 31.5799 75.1501 30.8899L73.5201 31.5699C73.9901 32.6999 75.2301 34.0799 77.2901 34.0799C79.4801 34.0799 81.3301 32.7899 81.3301 29.6499V22.0099H79.5601V22.6999ZM75.05 26.0199C75.05 27.4999 76.1301 28.5799 77.42 28.5799C78.7001 28.5799 79.7001 27.4999 79.69 26.0199C79.69 24.5299 78.69 23.4299 77.42 23.4299C76.1301 23.4299 75.05 24.5199 75.05 26.0199ZM101.81 17.5H97.3401V30H99.2101V25.26H101.82C103.89 25.26 105.92 23.76 105.92 21.38C105.92 19 103.87 17.5 101.81 17.5ZM99.2002 23.5201H101.85C103.25 23.5201 104.04 22.3501 104.04 21.3701C104.04 20.3901 103.25 19.2301 101.85 19.2301H99.2002V23.5201ZM113.39 21.7301C112.04 21.7301 110.64 22.3301 110.06 23.6401L111.72 24.3301C112.07 23.6401 112.73 23.4101 113.42 23.4101C114.39 23.4101 115.37 23.9901 115.38 25.0201V25.1501C115.04 24.9601 114.32 24.6701 113.43 24.6701C111.64 24.6701 109.83 25.6501 109.83 27.4801C109.83 29.1501 111.29 30.2301 112.93 30.2301C114.18 30.2301 114.88 29.6701 115.31 29.0101H115.37V29.9801H117.17V25.1901C117.18 22.9701 115.52 21.7301 113.39 21.7301ZM111.7 27.5198C111.7 28.2698 112.55 28.5798 113.16 28.5798C114.289 28.5704 115.237 27.7291 115.38 26.6098C114.89 26.3698 114.5 26.1898 113.68 26.1898C112.76 26.1898 111.7 26.5598 111.7 27.5198ZM123.74 22.0001L121.6 27.4201H121.54L119.32 22.0001H117.31L120.64 29.5801L118.74 33.7901H120.69L125.82 22.0001H123.74ZM108.81 30H106.94V17.5H108.81V30Z" fill="white"/>
<path d="M10.4401 7.54021C10.1501 7.85021 9.9801 8.33021 9.9801 8.94021V31.0602C9.9801 31.6802 10.1501 32.1602 10.4401 32.4602L10.5101 32.5302L22.9001 20.1502V19.8502L10.5101 7.47021L10.4401 7.54021Z" fill="url(#paint0_linear_1228_709)"/>
<path d="M27.0301 24.2797L22.9001 20.1497V19.8497L27.0301 15.7197L27.1201 15.7697L32.0101 18.5497C33.4101 19.3397 33.4101 20.6397 32.0101 21.4397L27.1201 24.2197L27.0301 24.2797Z" fill="url(#paint1_linear_1228_709)"/>
<path d="M27.1198 24.23L22.8998 20L10.4398 32.46C10.8998 32.95 11.6598 33.01 12.5198 32.52L27.1198 24.23Z" fill="url(#paint2_linear_1228_709)"/>
<path d="M27.1199 15.78L12.5099 7.47999C11.6499 6.98999 10.8899 7.04999 10.4299 7.53999L22.8999 20L27.1199 15.78Z" fill="url(#paint3_linear_1228_709)"/>
<path opacity="0.2" d="M27.0298 24.1299L12.5098 32.3799C11.6998 32.8399 10.9698 32.8099 10.5098 32.3899L10.4398 32.4599L10.5098 32.5299C10.9798 32.9499 11.6998 32.9799 12.5098 32.5199L27.1198 24.2199L27.0298 24.1299V24.1299Z" fill="black"/>
<path opacity="0.12" fill-rule="evenodd" clip-rule="evenodd" d="M27.02 24.13L32.01 21.3C32.65 20.94 33 20.47 33.05 20C33.05 20.52 32.7 21.04 32 21.44L27.11 24.22L27.02 24.13ZM9.9801 30.9199C9.9801 31.5299 10.1501 32.0099 10.4401 32.3199L10.5101 32.3999L10.4401 32.4699C10.1501 32.1699 9.9801 31.6899 9.9801 31.0699V30.9199Z" fill="black"/>
<path opacity="0.25" d="M12.5098 7.61994L32.0098 18.6999C32.6398 19.0599 32.9998 19.5199 33.0598 19.9999C33.0598 19.4799 32.7099 18.9499 32.0098 18.5599L12.5098 7.47994C11.1098 6.68994 9.96985 7.34994 9.96985 8.94994V9.09994C9.96985 7.48994 11.1198 6.82994 12.5098 7.61994Z" fill="white"/>
<defs>
<linearGradient id="paint0_linear_1228_709" x1="17.474" y1="-7.56618" x2="-2.36776" y2="-2.29245" gradientUnits="userSpaceOnUse">
<stop stop-color="#00A0FF"/>
<stop offset="0.007" stop-color="#00A1FF"/>
<stop offset="0.26" stop-color="#00BEFF"/>
<stop offset="0.512" stop-color="#00D2FF"/>
<stop offset="0.76" stop-color="#00DFFF"/>
<stop offset="1" stop-color="#00E3FF"/>
</linearGradient>
<linearGradient id="paint1_linear_1228_709" x1="33.8341" y1="9.80792" x2="9.63815" y2="9.80792" gradientUnits="userSpaceOnUse">
<stop stop-color="#FFE000"/>
<stop offset="0.409" stop-color="#FFBD00"/>
<stop offset="0.775" stop-color="#FFA500"/>
<stop offset="1" stop-color="#FF9C00"/>
</linearGradient>
<linearGradient id="paint2_linear_1228_709" x1="10.0665" y1="13.5237" x2="-5.86874" y2="40.3366" gradientUnits="userSpaceOnUse">
<stop stop-color="#FF3A44"/>
<stop offset="1" stop-color="#C31162"/>
</linearGradient>
<linearGradient id="paint3_linear_1228_709" x1="0.701468" y1="4.09105" x2="7.81036" y2="16.067" gradientUnits="userSpaceOnUse">
<stop stop-color="#32A071"/>
<stop offset="0.069" stop-color="#2DA771"/>
<stop offset="0.476" stop-color="#15CF74"/>
<stop offset="0.801" stop-color="#06E775"/>
<stop offset="1" stop-color="#00F076"/>
</linearGradient>
</defs>
</svg>
