<svg width="15" height="15" viewBox="0 0 15 15" fill="none" xmlns="http://www.w3.org/2000/svg">
<path fill-rule="evenodd" clip-rule="evenodd" d="M7 14C3.13401 14 0 10.866 0 7C0 3.13401 3.13401 0 7 0C10.866 0 14 3.13401 14 7C14 8.5723 13.4816 10.0236 12.6064 11.1922L14.7071 13.2929C15.0976 13.6834 15.0976 14.3166 14.7071 14.7071C14.3166 15.0976 13.6834 15.0976 13.2929 14.7071L11.1922 12.6064C10.0236 13.4816 8.5723 14 7 14ZM7 12C9.7614 12 12 9.7614 12 7C12 4.23858 9.7614 2 7 2C4.23858 2 2 4.23858 2 7C2 9.7614 4.23858 12 7 12Z" fill="#828282"/>
</svg>
