<svg width="24" height="21" viewBox="0 0 24 21" fill="none" xmlns="http://www.w3.org/2000/svg">
<path d="M21.5625 5.625C21.5625 5.71875 21.5625 5.82031 21.5625 5.92969C21.5625 6.03906 21.5625 6.14062 21.5625 6.23438C21.5625 7.85938 21.2578 9.50781 20.6484 11.1797C20.0391 12.8359 19.1406 14.3359 17.9531 15.6797C16.7656 17.0234 15.2969 18.125 13.5469 18.9844C11.8125 19.8281 9.8125 20.25 7.54688 20.25C6.85938 20.25 6.17969 20.2031 5.50781 20.1094C4.83594 20.0156 4.17969 19.875 3.53906 19.6875C2.91406 19.5 2.30469 19.2734 1.71094 19.0078C1.11719 18.7266 0.546875 18.4062 0 18.0469C0.1875 18.0625 0.382812 18.0781 0.585938 18.0938C0.789062 18.0938 0.984375 18.0938 1.17188 18.0938C2.3125 18.0938 3.40625 17.9141 4.45312 17.5547C5.51562 17.1953 6.46875 16.6719 7.3125 15.9844C6.23438 15.9844 5.27344 15.6641 4.42969 15.0234C3.58594 14.3672 3 13.5469 2.67188 12.5625C2.82812 12.6094 2.97656 12.6406 3.11719 12.6562C3.27344 12.6562 3.4375 12.6562 3.60938 12.6562C3.84375 12.6562 4.0625 12.6484 4.26562 12.6328C4.48438 12.6016 4.70312 12.5625 4.92188 12.5156C3.79688 12.2812 2.85938 11.7109 2.10938 10.8047C1.35938 9.89844 0.984375 8.85938 0.984375 7.6875C0.984375 7.67188 0.984375 7.66406 0.984375 7.66406C0.984375 7.64844 0.984375 7.625 0.984375 7.59375C1.3125 7.78125 1.65625 7.92969 2.01562 8.03906C2.39062 8.14844 2.78125 8.20312 3.1875 8.20312C2.53125 7.78125 2 7.21094 1.59375 6.49219C1.1875 5.75781 0.984375 4.96875 0.984375 4.125C0.984375 3.6875 1.04688 3.25781 1.17188 2.83594C1.29688 2.41406 1.46875 2.01562 1.6875 1.64062C2.28125 2.39062 2.95312 3.07031 3.70312 3.67969C4.45312 4.28906 5.25781 4.82031 6.11719 5.27344C6.97656 5.71094 7.88281 6.0625 8.83594 6.32812C9.80469 6.59375 10.7969 6.75 11.8125 6.79688C11.7656 6.60938 11.7266 6.42188 11.6953 6.23438C11.6797 6.04688 11.6719 5.85938 11.6719 5.67188C11.6719 5 11.7969 4.36719 12.0469 3.77344C12.3125 3.16406 12.6641 2.64062 13.1016 2.20312C13.5547 1.75 14.0781 1.39844 14.6719 1.14844C15.2656 0.882812 15.9062 0.75 16.5938 0.75C17.3125 0.75 17.9766 0.890625 18.5859 1.17188C19.2109 1.45312 19.75 1.82812 20.2031 2.29688C20.7656 2.1875 21.3125 2.03906 21.8438 1.85156C22.375 1.64844 22.875 1.40625 23.3438 1.125C23.1562 1.6875 22.875 2.20312 22.5 2.67188C22.125 3.14062 21.6875 3.53125 21.1875 3.84375C21.6719 3.78125 22.1484 3.6875 22.6172 3.5625C23.0859 3.4375 23.5469 3.26563 24 3.04688C23.6719 3.53125 23.2969 3.99219 22.875 4.42969C22.4688 4.86719 22.0312 5.26562 21.5625 5.625Z" fill="#828282"/>
</svg>
