<svg width="16" height="16" viewBox="0 0 16 16" fill="none" xmlns="http://www.w3.org/2000/svg">
<path d="M13.6562 2.3125C13.2812 1.9375 12.875 1.60938 12.4375 1.32812C12.0104 1.03646 11.5573 0.791667 11.0781 0.59375C10.599 0.395833 10.1042 0.25 9.59375 0.15625C9.08333 0.0520833 8.5625 0 8.03125 0C6.9375 0 5.90625 0.208333 4.9375 0.625C3.97917 1.04167 3.14062 1.60938 2.42188 2.32812C1.70312 3.04688 1.13542 3.89062 0.71875 4.85938C0.302083 5.81771 0.09375 6.84375 0.09375 7.9375C0.09375 8.625 0.182292 9.30729 0.359375 9.98438C0.546875 10.651 0.8125 11.2917 1.15625 11.9062L0.03125 16L4.25 14.9062C4.82292 15.2188 5.42708 15.4583 6.0625 15.625C6.69792 15.7917 7.35417 15.875 8.03125 15.875C9.125 15.875 10.151 15.6667 11.1094 15.25C12.0781 14.8333 12.9219 14.2656 13.6406 13.5469C14.3594 12.8281 14.9271 11.9896 15.3438 11.0312C15.7604 10.0625 15.9688 9.03125 15.9688 7.9375C15.9688 7.40625 15.9167 6.88542 15.8125 6.375C15.7188 5.86458 15.5729 5.36979 15.375 4.89062C15.1771 4.41146 14.9323 3.95833 14.6406 3.53125C14.3594 3.09375 14.0312 2.6875 13.6562 2.3125ZM8.03125 14.5312C7.4375 14.5312 6.85417 14.4531 6.28125 14.2969C5.71875 14.1406 5.1875 13.9062 4.6875 13.5938L4.4375 13.4688L1.9375 14.125L2.59375 11.6875L2.4375 11.4375C2.11458 10.9062 1.86458 10.349 1.6875 9.76562C1.52083 9.17188 1.4375 8.5625 1.4375 7.9375C1.4375 7.02083 1.60938 6.16146 1.95312 5.35938C2.30729 4.55729 2.78125 3.85938 3.375 3.26562C3.96875 2.67188 4.66667 2.20312 5.46875 1.85938C6.27083 1.51562 7.125 1.34375 8.03125 1.34375C8.46875 1.34375 8.89583 1.38542 9.3125 1.46875C9.73958 1.55208 10.151 1.67708 10.5469 1.84375C10.9427 2.01042 11.3177 2.21354 11.6719 2.45312C12.0365 2.69271 12.375 2.96875 12.6875 3.28125C13 3.59375 13.276 3.93229 13.5156 4.29688C13.7552 4.65104 13.9583 5.02604 14.125 5.42188C14.2917 5.81771 14.4167 6.22917 14.5 6.65625C14.5833 7.07292 14.625 7.5 14.625 7.9375C14.625 8.84375 14.4479 9.69792 14.0938 10.5C13.75 11.3021 13.2812 12 12.6875 12.5938C12.0938 13.1875 11.3958 13.6615 10.5938 14.0156C9.79167 14.3594 8.9375 14.5312 8.03125 14.5312ZM11.6562 9.59375C11.5521 9.55208 11.3177 9.44271 10.9531 9.26562C10.599 9.07812 10.375 8.96875 10.2812 8.9375C10.2083 8.90625 10.1302 8.89062 10.0469 8.89062C9.97396 8.89062 9.90625 8.9375 9.84375 9.03125C9.78125 9.13542 9.67708 9.27604 9.53125 9.45312C9.38542 9.63021 9.28125 9.75 9.21875 9.8125C9.15625 9.875 9.09375 9.91146 9.03125 9.92188C8.97917 9.93229 8.89583 9.91667 8.78125 9.875C8.6875 9.83333 8.49479 9.74479 8.20312 9.60938C7.92188 9.46354 7.58333 9.21875 7.1875 8.875C6.90625 8.625 6.66667 8.36458 6.46875 8.09375C6.28125 7.8125 6.15625 7.61458 6.09375 7.5C6.03125 7.40625 6.01562 7.33333 6.04688 7.28125C6.08854 7.21875 6.13542 7.15625 6.1875 7.09375C6.22917 7.0625 6.27083 7.01562 6.3125 6.95312C6.36458 6.88021 6.41667 6.8125 6.46875 6.75C6.53125 6.70833 6.57292 6.66146 6.59375 6.60938C6.625 6.55729 6.65625 6.5 6.6875 6.4375C6.71875 6.375 6.72917 6.31771 6.71875 6.26562C6.70833 6.20312 6.6875 6.14583 6.65625 6.09375C6.64583 6.05208 6.5625 5.84375 6.40625 5.46875C6.26042 5.09375 6.14583 4.8125 6.0625 4.625C5.96875 4.42708 5.88021 4.32292 5.79688 4.3125C5.72396 4.29167 5.65625 4.28125 5.59375 4.28125C5.55208 4.28125 5.49479 4.28125 5.42188 4.28125C5.34896 4.28125 5.28125 4.28125 5.21875 4.28125C5.15625 4.28125 5.07292 4.29688 4.96875 4.32812C4.875 4.34896 4.78125 4.40625 4.6875 4.5C4.59375 4.60417 4.45312 4.78646 4.26562 5.04688C4.08854 5.29688 4 5.66667 4 6.15625C4 6.65625 4.11979 7.10938 4.35938 7.51562C4.60938 7.92188 4.76042 8.15625 4.8125 8.21875C4.83333 8.25 4.92708 8.38542 5.09375 8.625C5.27083 8.85417 5.50521 9.125 5.79688 9.4375C6.08854 9.75 6.4375 10.0729 6.84375 10.4062C7.25 10.7292 7.69792 11 8.1875 11.2188C8.41667 11.3125 8.625 11.3906 8.8125 11.4531C9 11.5156 9.16667 11.5729 9.3125 11.625C9.5625 11.6979 9.78646 11.7344 9.98438 11.7344C10.1927 11.7344 10.3854 11.7292 10.5625 11.7188C10.7604 11.6875 11.0104 11.5781 11.3125 11.3906C11.625 11.2031 11.8229 10.9896 11.9062 10.75C12 10.5312 12.0521 10.3333 12.0625 10.1562C12.0729 9.97917 12.0625 9.86458 12.0312 9.8125C12 9.78125 11.9531 9.75 11.8906 9.71875C11.8281 9.6875 11.75 9.64583 11.6562 9.59375Z" fill="#1E1E1E"/>
</svg>
