<svg width="24" height="17" viewBox="0 0 24 17" fill="none" xmlns="http://www.w3.org/2000/svg">
<path d="M23.7656 3.71875C23.7656 3.71875 23.6953 3.41406 23.5547 2.80469C23.4297 2.17969 23.1875 1.6875 22.8281 1.32812C22.3594 0.84375 21.8906 0.5625 21.4219 0.484375C20.9688 0.390625 20.625 0.328125 20.3906 0.296875C19.5625 0.234375 18.6562 0.1875 17.6719 0.15625C16.7031 0.125 15.7969 0.101562 14.9531 0.0859375C14.1094 0.0703125 13.4062 0.0625 12.8438 0.0625C12.2812 0.0625 12 0.0625 12 0.0625C12 0.0625 11.7188 0.0625 11.1562 0.0625C10.5938 0.0625 9.89062 0.0703125 9.04688 0.0859375C8.20312 0.101562 7.28906 0.125 6.30469 0.15625C5.33594 0.1875 4.4375 0.234375 3.60938 0.296875C3.375 0.3125 3.02344 0.367188 2.55469 0.460938C2.10156 0.539063 1.64062 0.828125 1.17188 1.32812C0.828125 1.67187 0.585938 2.15625 0.445312 2.78125C0.304688 3.40625 0.234375 3.71875 0.234375 3.71875C0.234375 3.71875 0.195312 4.11719 0.117188 4.91406C0.0390625 5.71094 0 6.59375 0 7.5625V9.39062C0 10.375 0.0390625 11.2734 0.117188 12.0859C0.195312 12.8828 0.234375 13.2812 0.234375 13.2812C0.234375 13.2812 0.296875 13.5859 0.421875 14.1953C0.5625 14.8047 0.8125 15.2969 1.17188 15.6719C1.64062 16.1406 2.13281 16.4219 2.64844 16.5156C3.17969 16.5938 3.57812 16.6562 3.84375 16.7031C4.32812 16.75 5.02344 16.7891 5.92969 16.8203C6.83594 16.8516 7.73438 16.875 8.625 16.8906C9.53125 16.9062 10.3203 16.9219 10.9922 16.9375C11.6641 16.9375 12 16.9375 12 16.9375C12 16.9375 12.2812 16.9375 12.8438 16.9375C13.4062 16.9375 14.1094 16.9297 14.9531 16.9141C15.7969 16.8984 16.7031 16.875 17.6719 16.8438C18.6562 16.8125 19.5625 16.7656 20.3906 16.7031C20.625 16.6875 20.9688 16.6328 21.4219 16.5391C21.8906 16.4297 22.3594 16.1406 22.8281 15.6719C23.1719 15.2969 23.4141 14.8047 23.5547 14.1953C23.6953 13.5859 23.7656 13.2812 23.7656 13.2812C23.7656 13.2812 23.8047 12.8828 23.8828 12.0859C23.9609 11.2734 24 10.375 24 9.39062V7.5625C24 6.60938 23.9609 5.73438 23.8828 4.9375C23.8047 4.125 23.7656 3.71875 23.7656 3.71875ZM15.2344 8.6875L9.5625 11.6406V4.89062L16.0312 8.26562L15.2344 8.6875Z" fill="#828282"/>
</svg>
